<svg version="1.0" xmlns="http://www.w3.org/2000/svg"
 width="1198.000000pt" height="1280.000000pt" viewBox="0 0 1198.000000 1280.000000"
 preserveAspectRatio="xMidYMid meet">
<g transform="translate(0.000000,1280.000000) scale(0.100000,-0.100000)"
fill="#fff" stroke="none">
<path d="M6221 12308 c-1 -262 -13 -335 -26 -163 -7 103 -19 116 -29 33 -11
-86 -26 -93 -27 -13 -1 39 -5 99 -9 135 -6 47 -7 25 -5 -80 3 -80 0 -163 -6
-185 -5 -22 -14 -238 -20 -480 -14 -617 3 -1017 62 -1396 12 -75 24 -141 28
-146 9 -15 100 -43 116 -36 8 3 15 12 15 20 0 21 23 10 38 -18 7 -13 22 -51
34 -84 26 -73 82 -134 124 -136 70 -3 80 7 60 55 -11 26 -12 42 -6 54 6 9 15
30 20 45 6 16 20 31 31 34 20 6 21 11 17 97 -4 70 -11 104 -31 146 -47 101
-99 306 -104 410 -3 52 0 106 5 120 l10 25 7 -28 c7 -25 33 -34 28 -9 -1 5
-10 49 -19 96 -15 77 -19 86 -39 86 -21 0 -23 6 -29 88 -19 253 -42 398 -127
832 -57 289 -96 533 -108 665 -7 72 -9 38 -10 -167z"/>
<path d="M8513 11808 c-128 -168 -238 -364 -398 -718 -59 -129 -129 -278 -155
-330 -26 -52 -59 -126 -73 -165 -14 -38 -48 -128 -77 -200 -83 -207 -117 -305
-150 -437 -29 -117 -52 -318 -36 -318 18 0 123 78 208 155 l92 83 43 114 c103
269 186 529 412 1283 60 204 126 417 146 474 19 58 33 106 31 108 -2 2 -21
-20 -43 -49z"/>
<path d="M3755 11753 c40 -103 260 -881 251 -890 -2 -2 -23 44 -47 101 -23 58
-44 104 -46 102 -6 -5 155 -472 207 -602 70 -172 158 -344 240 -468 84 -126
113 -163 202 -253 66 -67 75 -73 112 -73 56 0 102 30 128 85 21 42 21 49 8 93
-7 26 -15 66 -18 90 -2 23 -8 42 -13 42 -5 0 -9 -4 -9 -10 0 -5 -9 -10 -19
-10 -21 0 -172 231 -371 565 -255 428 -483 879 -594 1173 -15 39 -30 72 -33
72 -3 0 -2 -8 2 -17z"/>
<path d="M10641 10404 c-317 -128 -568 -300 -1106 -754 -405 -343 -602 -498
-684 -540 -21 -10 -72 -26 -114 -34 -109 -23 -153 -43 -191 -87 -25 -30 -46
-43 -86 -53 -33 -9 -64 -25 -83 -45 l-31 -31 35 2 c48 2 54 -3 89 -77 37 -77
34 -85 -52 -144 -51 -35 -52 -36 -25 -39 15 -2 25 -8 21 -13 -3 -5 2 -29 11
-54 10 -24 15 -51 12 -60 -5 -12 3 -15 49 -15 92 0 199 28 374 99 92 38 188
74 212 81 41 12 48 20 108 117 140 226 302 426 535 659 251 252 476 442 930
784 127 95 232 174 233 176 2 1 1 12 -3 23 -14 45 -129 48 -234 5z"/>
<path d="M1953 9543 c74 -88 158 -176 199 -209 95 -76 178 -163 207 -216 27
-48 32 -50 -69 34 -72 60 -129 98 -147 98 -24 0 12 -43 99 -116 74 -63 138
-134 138 -156 0 -4 -11 -8 -23 -8 -27 0 -86 41 -132 90 -63 67 -67 50 -4 -21
36 -41 123 -141 194 -224 232 -269 433 -459 601 -567 87 -56 297 -148 337
-148 7 0 20 35 31 83 15 68 16 90 6 126 -17 64 1 84 90 106 40 10 83 27 97 40
22 19 25 25 16 51 -8 23 -22 34 -70 54 -77 32 -97 48 -82 66 6 8 25 14 41 14
38 0 44 19 18 63 -22 37 -47 52 -72 42 -19 -8 -39 17 -47 58 l-7 32 -124 0
c-139 0 -158 6 -316 89 -118 63 -227 138 -434 301 -101 80 -220 171 -263 202
-70 50 -81 55 -99 44 -17 -11 -27 -8 -72 22 -28 19 -94 72 -146 118 l-95 84
128 -152z"/>
<path d="M6132 9638 c-230 -19 -450 -76 -617 -160 -55 -28 -126 -57 -159 -64
-131 -32 -232 -98 -476 -314 -166 -147 -239 -202 -319 -239 l-52 -25 27 -21
c31 -25 28 -36 -20 -59 -25 -12 -41 -14 -60 -7 -22 9 -30 5 -60 -25 -20 -20
-36 -37 -36 -39 0 -2 12 -6 28 -10 l27 -7 -24 -19 c-13 -10 -19 -19 -14 -19 6
0 18 9 28 20 23 26 45 26 45 -1 0 -31 -112 -139 -144 -139 -19 0 -34 -11 -56
-42 -16 -22 -30 -49 -30 -58 0 -20 -64 -80 -85 -80 -25 0 -29 23 -7 38 21 14
21 14 -14 44 -18 16 -31 34 -28 39 3 5 25 9 48 9 29 0 52 7 67 20 l24 20 -27
-11 c-22 -10 -36 -9 -71 5 -23 9 -52 16 -64 16 -49 0 -151 -128 -267 -333 -42
-74 -96 -160 -120 -192 -40 -51 -66 -118 -66 -169 0 -25 -35 -57 -65 -60 -26
-2 -34 -11 -64 -72 -56 -116 -93 -241 -96 -324 -2 -51 -13 -103 -34 -164 -17
-49 -36 -128 -41 -175 -6 -47 -22 -168 -35 -269 -53 -390 -66 -649 -44 -850
12 -111 43 -255 70 -325 11 -26 19 -61 19 -78 0 -16 16 -78 35 -138 23 -69 35
-127 35 -162 0 -93 -14 -90 -55 13 -20 51 -38 95 -40 97 -2 2 -1 -23 2 -55 4
-45 33 -128 120 -339 64 -154 139 -327 168 -385 100 -200 236 -377 368 -478
70 -54 225 -143 317 -181 44 -19 100 -53 134 -82 182 -155 534 -289 893 -340
112 -16 441 -35 461 -27 12 5 10 7 -10 7 -22 1 -28 6 -28 24 0 42 55 51 330
52 185 1 288 7 420 23 96 12 209 22 250 22 200 0 348 37 742 184 142 53 264
96 273 96 23 0 174 82 271 148 493 332 850 785 1023 1297 64 191 98 361 116
583 44 532 -18 928 -213 1360 -242 540 -743 1068 -1235 1302 -382 182 -772
250 -1162 205 -466 -54 -835 -245 -1221 -630 -360 -359 -576 -759 -666 -1230
-32 -173 -32 -511 0 -700 54 -311 184 -581 401 -830 121 -140 322 -293 491
-374 99 -48 351 -132 463 -155 256 -53 530 -41 977 40 162 29 193 44 314 154
189 171 329 373 446 640 35 79 47 128 77 295 41 233 48 399 21 500 -10 36 -16
101 -16 165 0 126 -16 203 -82 404 -45 136 -55 158 -103 216 -130 158 -306
292 -481 369 -103 45 -271 92 -331 93 -72 0 -418 -63 -513 -94 -161 -53 -265
-143 -313 -268 l-21 -55 32 -340 c37 -403 41 -430 80 -513 37 -79 156 -202
247 -255 70 -40 203 -101 218 -99 49 6 161 34 172 43 7 6 13 22 13 34 0 21 -5
23 -82 28 -66 4 -104 14 -188 47 -119 48 -168 79 -225 141 -109 119 -151 255
-175 564 -6 77 -13 163 -16 191 l-6 50 48 42 c144 124 386 192 683 192 l114 0
97 -51 c111 -58 189 -121 225 -183 25 -43 74 -252 132 -562 24 -132 27 -173
27 -359 1 -184 -2 -220 -21 -291 -56 -212 -189 -424 -331 -528 -107 -78 -280
-148 -466 -188 -135 -29 -478 -32 -626 -5 -346 63 -615 214 -776 437 -95 130
-189 318 -229 455 -116 402 -71 904 119 1298 140 292 442 634 727 825 290 194
587 286 919 285 280 0 596 -69 821 -177 460 -221 872 -701 1037 -1208 53 -163
67 -312 59 -619 -9 -375 -65 -657 -198 -999 -92 -236 -205 -440 -390 -699
-207 -292 -364 -418 -778 -625 -142 -72 -201 -96 -229 -96 -61 0 -175 -33
-340 -99 l-152 -61 -133 -4 c-117 -3 -150 -8 -292 -46 -181 -48 -154 -47 -710
-39 -288 4 -290 4 -365 32 -41 15 -97 33 -125 38 -75 16 -99 32 -154 109 -57
78 -107 116 -128 98 -20 -16 -68 -2 -121 34 -26 18 -68 40 -93 48 -36 13 -65
35 -128 104 -44 48 -81 91 -81 96 0 4 -30 46 -66 92 -129 160 -207 301 -268
479 -20 58 -36 113 -36 121 0 20 -49 177 -66 210 -8 15 -22 29 -31 32 -15 5
-18 18 -18 78 0 85 -46 224 -71 214 -21 -8 -44 46 -44 103 0 27 -4 53 -10 56
-17 10 -11 25 10 25 17 0 20 7 20 44 0 26 -6 51 -15 60 -42 41 -46 130 -11
266 13 52 26 136 30 186 7 110 22 185 76 374 34 117 43 168 49 265 8 136 22
177 63 185 23 4 47 36 141 185 l114 181 -5 61 c-4 55 -1 68 32 129 19 37 34
69 32 71 -8 8 -86 -89 -86 -107 0 -11 -6 -20 -13 -20 -19 0 -43 -29 -50 -60
-12 -49 -107 -140 -107 -102 0 5 36 80 79 168 89 178 196 347 320 504 101 128
397 424 541 542 94 76 109 85 138 81 67 -10 246 59 262 101 10 26 43 42 119
56 30 6 60 15 68 22 11 9 15 7 19 -10 6 -20 7 -20 51 -4 42 16 44 19 39 47
-13 70 96 159 238 194 26 6 74 25 105 40 31 16 106 45 166 64 305 98 625 106
1045 26 139 -27 732 -177 810 -205 32 -11 -8 17 -115 82 -152 91 -449 236
-575 279 -133 46 -270 81 -396 101 -112 17 -492 25 -642 12z"/>
<path d="M2040 9238 c0 -2 24 -30 54 -61 34 -37 57 -54 61 -47 4 6 13 9 21 6
30 -12 11 6 -61 54 -41 28 -75 49 -75 48z"/>
<path d="M4290 8633 c0 -8 5 -13 12 -11 18 6 21 25 3 25 -8 0 -15 -7 -15 -14z"/>
<path d="M11325 8039 c-62 -19 -306 -61 -470 -79 -93 -11 -354 -31 -580 -45
-565 -35 -547 -33 -685 -98 -125 -59 -231 -98 -325 -117 -64 -13 -75 -22 -75
-57 0 -24 9 -28 88 -36 23 -3 54 -13 68 -22 l25 -16 -32 -37 c-18 -20 -43 -61
-57 -91 l-25 -54 21 -17 c38 -31 131 -44 224 -30 364 52 643 139 1399 438 222
87 459 178 527 202 71 25 121 47 119 54 -5 14 -180 18 -222 5z"/>
<path d="M85 7569 c226 -99 577 -242 685 -279 69 -24 193 -60 275 -82 l150
-38 -100 5 c-55 2 -140 8 -190 11 -58 4 -86 3 -80 -3 14 -14 212 -85 320 -116
198 -56 350 -87 591 -122 165 -23 202 -25 579 -25 221 0 470 3 553 7 l150 6
-15 24 c-16 24 -15 26 30 70 26 25 47 51 47 58 0 25 -60 73 -145 116 -99 51
-108 66 -81 142 17 46 17 50 0 68 -23 25 -37 24 -49 -3 -9 -20 -19 -24 -83
-28 -66 -4 -76 -8 -96 -33 l-23 -28 -224 -6 c-159 -4 -292 0 -459 12 -129 9
-341 19 -470 22 l-235 5 -595 124 c-327 68 -597 124 -600 124 -3 -1 27 -14 65
-31z"/>
<path d="M9492 6165 c-108 -54 -107 -52 -11 -147 206 -204 447 -306 832 -355
112 -14 220 -16 708 -14 643 2 734 -3 858 -49 45 -16 85 -30 89 -30 3 0 -9 15
-27 34 -24 25 -33 43 -33 68 0 27 -7 38 -41 63 -135 98 -280 162 -462 205
-163 39 -291 53 -665 75 -466 27 -534 37 -760 110 -173 57 -255 75 -346 75
-62 0 -81 -5 -142 -35z"/>
<path d="M3160 6011 c0 -11 5 -23 10 -26 6 -4 10 5 10 19 0 14 -4 26 -10 26
-5 0 -10 -9 -10 -19z"/>
<path d="M2844 5685 c-23 -17 -103 -19 -208 -5 -85 12 -142 2 -170 -29 -9 -10
-34 -21 -54 -25 -57 -9 -144 -55 -300 -159 -78 -53 -156 -98 -172 -102 -20 -4
-30 -13 -30 -25 0 -19 -54 -66 -105 -92 -16 -9 -82 -37 -145 -62 -63 -26 -153
-69 -200 -95 -128 -73 -166 -91 -215 -100 -41 -8 -62 0 -32 12 6 3 -9 6 -34 6
-53 1 -79 -18 -54 -39 22 -19 11 -27 -49 -34 -60 -8 -81 -20 -99 -56 -9 -19
-22 -26 -50 -28 -20 -2 -37 -7 -37 -11 0 -5 -28 -14 -63 -21 l-62 -13 50 -9
c66 -12 74 -23 34 -44 -19 -9 -108 -65 -199 -124 -91 -59 -194 -123 -229 -141
l-65 -34 70 -3 c49 -2 120 7 230 29 154 30 354 51 354 37 0 -8 -172 -76 -277
-109 -40 -12 -71 -24 -69 -26 2 -2 86 12 186 31 100 20 223 41 273 46 213 25
420 73 662 154 185 62 458 166 528 202 73 37 168 69 307 104 179 44 271 76
337 119 76 49 85 62 100 135 11 52 11 63 -4 85 -15 24 -15 26 12 48 26 23 27
26 16 70 -20 79 -38 113 -60 113 -11 0 -23 -4 -26 -10 -10 -16 -45 -12 -52 7
-6 16 29 55 58 65 16 5 -4 68 -29 88 -76 65 -94 71 -128 45z"/>
<path d="M9080 4530 c-67 -14 -77 -19 -61 -29 26 -16 0 -31 -53 -31 -40 0 -57
-5 -71 -20 -17 -19 -17 -21 26 -67 223 -243 480 -409 1042 -673 161 -75 343
-162 405 -194 61 -31 112 -54 112 -52 0 17 -80 184 -117 245 -126 209 -326
409 -477 479 -37 18 -143 81 -235 141 -178 116 -243 153 -331 183 -66 22 -178
31 -240 18z"/>
<path d="M3617 4062 c-15 -15 -27 -37 -27 -48 -1 -11 -20 -33 -48 -54 -95 -70
-331 -279 -496 -440 -354 -346 -699 -744 -1105 -1279 -121 -159 -131 -174
-114 -186 17 -13 17 -15 -7 -41 -14 -14 -65 -60 -115 -101 -91 -76 -168 -156
-129 -135 10 6 121 80 247 165 160 110 227 150 227 138 0 -22 -52 -106 -98
-156 -20 -22 -8 -12 28 21 102 96 248 213 274 220 61 15 53 -3 -54 -116 -188
-199 -148 -168 200 149 203 186 488 459 930 891 228 223 445 432 483 464 82
73 85 92 27 185 -49 81 -56 110 -35 155 16 34 16 35 -18 88 -41 64 -90 108
-121 108 -12 0 -34 -13 -49 -28z"/>
<path d="M3980 3946 c0 -9 128 -100 174 -123 47 -24 137 -55 143 -50 1 2 -30
27 -69 57 -56 43 -80 55 -109 56 -26 1 -48 10 -75 32 -34 28 -64 41 -64 28z"/>
<path d="M7475 3335 c-80 -15 -161 -45 -210 -78 l-33 -22 19 -24 c23 -28 24
-50 5 -57 -11 -4 -5 -27 30 -107 52 -119 129 -324 224 -597 187 -539 292 -781
449 -1029 l46 -73 3 153 c7 345 -48 787 -155 1232 l-35 149 18 41 c10 22 19
55 20 71 0 17 5 52 9 78 7 45 6 48 -20 58 -14 5 -30 8 -35 5 -5 -3 -12 31 -16
75 l-7 81 -37 19 c-36 18 -143 41 -185 39 -11 0 -51 -7 -90 -14z"/>
<path d="M5258 3181 c-31 -20 -60 -40 -64 -44 -4 -4 1 -25 11 -47 l18 -39 -81
-173 c-244 -526 -412 -975 -812 -2166 -193 -575 -221 -667 -211 -688 10 -22
13 -23 33 -13 48 25 138 123 205 222 54 79 89 148 158 312 429 1024 651 1476
954 1942 74 115 90 133 112 133 34 0 46 15 64 79 10 32 24 55 38 62 12 7 24
13 26 15 2 2 -17 23 -43 45 -39 34 -47 47 -43 68 9 45 -124 203 -247 295 -27
20 -52 36 -55 35 -3 0 -32 -17 -63 -38z"/>
</g>
</svg>